solid OpenSCAD_Model
  facet normal -1 0 0
    outer loop
      vertex -92.5 -92.5 -5
      vertex -92.5 92.5 5
      vertex -92.5 92.5 -5
    endloop
  endfacet
  facet normal -1 -0 0
    outer loop
      vertex -92.5 92.5 5
      vertex -92.5 -92.5 -5
      vertex -92.5 -92.5 5
    endloop
  endfacet
  facet normal 0 0 1
    outer loop
      vertex 92.5 92.5 5
      vertex 88.5 88.5 5
      vertex 92.5 -92.5 5
    endloop
  endfacet
  facet normal 0 0 1
    outer loop
      vertex 92.5 92.5 5
      vertex -88.5 88.5 5
      vertex 88.5 88.5 5
    endloop
  endfacet
  facet normal 0 0 1
    outer loop
      vertex -88.5 88.5 5
      vertex -92.5 92.5 5
      vertex -88.5 -88.5 5
    endloop
  endfacet
  facet normal -0 0 1
    outer loop
      vertex -92.5 92.5 5
      vertex -88.5 88.5 5
      vertex 92.5 92.5 5
    endloop
  endfacet
  facet normal -0 0 1
    outer loop
      vertex 88.5 -88.5 5
      vertex 92.5 -92.5 5
      vertex 88.5 88.5 5
    endloop
  endfacet
  facet normal -0 0 1
    outer loop
      vertex -88.5 -88.5 5
      vertex 92.5 -92.5 5
      vertex 88.5 -88.5 5
    endloop
  endfacet
  facet normal 0 0 1
    outer loop
      vertex -88.5 -88.5 5
      vertex -92.5 -92.5 5
      vertex 92.5 -92.5 5
    endloop
  endfacet
  facet normal 0 0 1
    outer loop
      vertex -92.5 -92.5 5
      vertex -88.5 -88.5 5
      vertex -92.5 92.5 5
    endloop
  endfacet
  facet normal 1 -0 0
    outer loop
      vertex 92.5 -92.5 5
      vertex 92.5 92.5 -5
      vertex 92.5 92.5 5
    endloop
  endfacet
  facet normal 1 0 0
    outer loop
      vertex 92.5 92.5 -5
      vertex 92.5 -92.5 5
      vertex 92.5 -92.5 -5
    endloop
  endfacet
  facet normal 0 0 -1
    outer loop
      vertex -92.5 -92.5 -5
      vertex 92.5 92.5 -5
      vertex 92.5 -92.5 -5
    endloop
  endfacet
  facet normal -0 0 -1
    outer loop
      vertex 92.5 92.5 -5
      vertex -92.5 -92.5 -5
      vertex -92.5 92.5 -5
    endloop
  endfacet
  facet normal 0 -1 0
    outer loop
      vertex -92.5 -92.5 -5
      vertex 92.5 -92.5 5
      vertex -92.5 -92.5 5
    endloop
  endfacet
  facet normal 0 -1 -0
    outer loop
      vertex 92.5 -92.5 5
      vertex -92.5 -92.5 -5
      vertex 92.5 -92.5 -5
    endloop
  endfacet
  facet normal 0 1 -0
    outer loop
      vertex 92.5 92.5 -5
      vertex -92.5 92.5 5
      vertex 92.5 92.5 5
    endloop
  endfacet
  facet normal 0 1 0
    outer loop
      vertex -92.5 92.5 5
      vertex 92.5 92.5 -5
      vertex -92.5 92.5 -5
    endloop
  endfacet
  facet normal 1 -0 0
    outer loop
      vertex -88.5 -88.5 5
      vertex -88.5 88.5 -1
      vertex -88.5 88.5 5
    endloop
  endfacet
  facet normal 1 0 0
    outer loop
      vertex -88.5 88.5 -1
      vertex -88.5 -88.5 5
      vertex -88.5 -88.5 -1
    endloop
  endfacet
  facet normal -1 0 0
    outer loop
      vertex 88.5 -88.5 -1
      vertex 88.5 88.5 5
      vertex 88.5 88.5 -1
    endloop
  endfacet
  facet normal -1 -0 0
    outer loop
      vertex 88.5 88.5 5
      vertex 88.5 -88.5 -1
      vertex 88.5 -88.5 5
    endloop
  endfacet
  facet normal -0 0 1
    outer loop
      vertex -88.5 88.5 -1
      vertex 88.5 -88.5 -1
      vertex 88.5 88.5 -1
    endloop
  endfacet
  facet normal 0 0 1
    outer loop
      vertex 88.5 -88.5 -1
      vertex -88.5 88.5 -1
      vertex -88.5 -88.5 -1
    endloop
  endfacet
  facet normal 0 1 -0
    outer loop
      vertex 88.5 -88.5 -1
      vertex -88.5 -88.5 5
      vertex 88.5 -88.5 5
    endloop
  endfacet
  facet normal 0 1 0
    outer loop
      vertex -88.5 -88.5 5
      vertex 88.5 -88.5 -1
      vertex -88.5 -88.5 -1
    endloop
  endfacet
  facet normal 0 -1 0
    outer loop
      vertex -88.5 88.5 -1
      vertex 88.5 88.5 5
      vertex -88.5 88.5 5
    endloop
  endfacet
  facet normal 0 -1 -0
    outer loop
      vertex 88.5 88.5 5
      vertex -88.5 88.5 -1
      vertex 88.5 88.5 -1
    endloop
  endfacet
endsolid OpenSCAD_Model
